<svg version="1.2" xmlns="http://www.w3.org/2000/svg" viewBox="0 0 1500 374" width="1500" height="374"><style>tspan{white-space:pre}.a{fill:#fff}.b{font-size: 105px;fill: #000000;font-family: "Raleway"}.c{font-size: 165px;fill: #000000;font-family: "Raleway"}</style><path  d="m-8-103h1200v628h-1200z"/><path class="a" d="m-8-103h1200v628h-1200z"/><path  d="m174.8 366.9c90.5 0 163.9-78.3 163.9-174.9 0-96.6-73.4-174.9-163.9-174.9-90.5 0-163.9 78.3-163.9 174.9 0 96.6 73.4 174.9 163.9 174.9z"/><path fill-rule="evenodd" class="a" d="m180.6 60.9c19 0.7 37.6 6.2 54.3 16 16.6 9.8 30.9 23.7 41.6 40.5 10.7 16.7 17.6 36 20.1 56.1 2.5 20.1 0.5 40.6-5.8 59.7-6.3 19.2-16.7 36.5-30.4 50.6-13.8 14-30.4 24.5-48.6 30.4-18.1 6-37.4 7.3-56.1 3.9-18.8-3.5-36.5-11.6-51.8-23.7-2.2-1.7-4-3.9-5.3-6.4-1.2-2.5-2-5.4-2.1-8.2-0.2-2.9 0.3-5.8 1.3-8.5 1-2.6 2.6-5 4.6-7 3.1-3.1 7.1-4.9 11.4-5.1 4.3-0.2 8.4 1.2 11.8 3.9 17.2 14.1 38.6 20.7 60.1 18.7 21.5-2 41.5-12.6 56.1-29.6 1.7-1.9 2.9-4.3 3.6-6.9 0.6-2.5 0.8-5.2 0.3-7.8-0.5-2.6-1.5-5.1-3-7.2-1.5-2.2-3.4-3.9-5.6-5.1-3.2-1.7-6.7-2.2-10.2-1.5-3.4 0.7-6.6 2.6-8.9 5.4-7.3 8.5-16.8 14.5-27.4 17.1-10.5 2.7-21.5 1.9-31.6-2.3-10.1-4.2-18.8-11.5-24.9-21-6.1-9.6-9.4-20.9-9.4-32.4 0-11.6 3.3-22.8 9.4-32.4 6.1-9.5 14.8-16.8 24.9-21 10.1-4.2 21.1-5 31.6-2.3 10.6 2.6 20.1 8.6 27.4 17.1l0.8 0.9c1.6 1.5 3.4 2.7 5.4 3.5 2 0.8 4.1 1.2 6.3 1.1 2.1-0.1 4.2-0.6 6.1-1.5 2-1 3.7-2.3 5.2-4 5.8-6.9 5.6-17.4-0.4-24.1-14.7-16.8-34.7-27.1-56.1-28.9-21.4-1.9-42.7 4.9-59.6 19-7 5.7-16.8 5.2-23.1-1.2-2-1.9-3.6-4.3-4.7-6.9-1-2.6-1.5-5.5-1.4-8.3 0.1-2.9 0.8-5.7 2-8.2 1.3-2.5 3-4.7 5.2-6.5 22.1-17.8 49.3-26.9 76.9-25.9zm-2.2 161.6c8 0.1 15.6-3.3 21.3-9.3 5.6-6 8.8-14.1 8.9-22.6 0-8.5-3.2-16.7-8.8-22.7-5.6-6.1-13.2-9.5-21.2-9.5-3.9 0-7.8 0.8-11.5 2.4-3.6 1.6-7 3.9-9.8 6.9-2.8 3-5 6.5-6.5 10.4-1.5 3.9-2.3 8-2.3 12.3-0.1 4.2 0.7 8.3 2.2 12.2 1.5 3.9 3.7 7.5 6.5 10.5 2.8 2.9 6.1 5.3 9.7 6.9 3.6 1.7 7.5 2.5 11.5 2.5z"/><text style="transform:matrix(.46,0,0,.46,1732.65,531.411)" ><tspan x="0" y="0" class="b">fashionFactory
</tspan></text><text style="transform:matrix(1,0,0,1,357.13,215.25)" ><tspan x="0" y="0" class="c">Fashion Factory
</tspan></text><text style="transform:matrix(1,0,0,1,-31,-149)" ></text></svg>