<?xml version="1.0" encoding="UTF-8" standalone="no" ?>
<!DOCTYPE svg PUBLIC "-//W3C//DTD SVG 1.1//EN" "http://www.w3.org/Graphics/SVG/1.1/DTD/svg11.dtd">
<svg xmlns="http://www.w3.org/2000/svg" xmlns:xlink="http://www.w3.org/1999/xlink" version="1.1" width="1080" height="1080" viewBox="0 0 1080 1080" xml:space="preserve">
<desc>Created with Fabric.js 5.2.4</desc>
<defs>
</defs>
<g transform="matrix(1 0 0 1 540 540)" id="8905f556-fbe7-4670-9f02-8cef03f54239"  >
</g>
<g transform="matrix(1 0 0 1 540 540)" id="76ccb533-0ed3-42e3-aa08-50967f04b971"  >
<rect style="stroke: none; stroke-width: 1; stroke-dasharray: none; stroke-linecap: butt; stroke-dashoffset: 0; stroke-linejoin: miter; stroke-miterlimit: 4; fill: rgb(255,255,255); fill-rule: nonzero; opacity: 1;" vector-effect="non-scaling-stroke"  x="-540" y="-540" rx="0" ry="0" width="1080" height="1080" />
</g>
<g transform="matrix(6.25 0 0 6.67 540 321.19)"  >
<g style=""   >
		<g transform="matrix(1 0 0 1 -56 0)"  >
<path style="stroke: none; stroke-width: 1; stroke-dasharray: none; stroke-linecap: butt; stroke-dashoffset: 0; stroke-linejoin: miter; stroke-miterlimit: 4; fill: rgb(0,0,0); fill-rule: nonzero; opacity: 1;" vector-effect="non-scaling-stroke"  transform=" translate(-25, -23)" d="M 25 45 C 37.1503 45 47 35.1503 47 23 C 47 10.8497 37.1503 1 25 1 C 12.8497 1 3 10.8497 3 23 C 3 35.1503 12.8497 45 25 45 Z" stroke-linecap="round" />
</g>
		<g transform="matrix(1 0 0 1 -53.02 -0.2)"  >
<path style="stroke: none; stroke-width: 1; stroke-dasharray: none; stroke-linecap: butt; stroke-dashoffset: 0; stroke-linejoin: miter; stroke-miterlimit: 4; fill: rgb(255,255,255); fill-rule: nonzero; opacity: 1;" vector-effect="non-scaling-stroke"  transform=" translate(-27.98, -22.8)" d="M 25.7837 6.50966 C 22.0684 6.38058 18.4217 7.53257 15.4548 9.77253 C 15.1671 9.98874 14.9311 10.2662 14.7639 10.5849 C 14.5967 10.9035 14.5024 11.2553 14.488 11.6149 C 14.4735 11.9745 14.5391 12.3327 14.6802 12.6638 C 14.8212 12.9949 15.0342 13.2904 15.3035 13.529 C 16.1588 14.3375 17.476 14.4008 18.4055 13.6789 C 20.6815 11.9076 23.5387 11.0536 26.4134 11.2852 C 29.2881 11.5168 31.9717 12.8173 33.9347 14.9302 C 34.746 15.7689 34.7708 17.0903 33.9925 17.9593 C 33.7969 18.1691 33.5619 18.3383 33.3009 18.4572 C 33.0398 18.5762 32.7579 18.6425 32.4713 18.6525 C 32.1846 18.6624 31.8988 18.6158 31.6302 18.5153 C 31.3615 18.4147 31.1153 18.2622 30.9056 18.0665 L 30.7998 17.9593 C 29.8209 16.8859 28.5403 16.1336 27.1261 15.8012 C 25.7119 15.4688 24.2303 15.5718 22.8757 16.0967 C 21.5212 16.6216 20.357 17.5438 19.5361 18.7424 C 18.7151 19.9409 18.2758 21.3596 18.2758 22.8123 C 18.2758 24.2651 18.7151 25.6838 19.5361 26.8823 C 20.357 28.0809 21.5212 29.0031 22.8757 29.528 C 24.2303 30.0529 25.7119 30.1559 27.1261 29.8235 C 28.5403 29.4911 29.8209 28.7388 30.7998 27.6654 C 31.1133 27.3145 31.5338 27.0768 31.9962 26.989 C 32.4585 26.9013 32.9369 26.9684 33.3572 27.18 C 33.6563 27.33 33.9166 27.5471 34.1178 27.8144 C 34.3191 28.0816 34.4558 28.3918 34.5173 28.7206 C 34.5788 29.0494 34.5634 29.388 34.4724 29.7099 C 34.3813 30.0319 34.2171 30.3284 33.9925 30.5763 C 32.0375 32.7163 29.3505 34.0446 26.463 34.2982 C 23.5755 34.5518 20.6981 33.7123 18.4 31.9458 C 17.9453 31.5993 17.3828 31.4245 16.8118 31.4522 C 16.2408 31.4799 15.6979 31.7082 15.2788 32.097 C 15.0112 32.3422 14.8013 32.6436 14.6641 32.9796 C 14.527 33.3156 14.466 33.6778 14.4856 34.0402 C 14.5052 34.4026 14.6049 34.7561 14.7775 35.0754 C 14.95 35.3946 15.1912 35.6716 15.4836 35.8865 C 17.5347 37.4076 19.9144 38.4254 22.4311 38.8579 C 24.9477 39.2903 27.5307 39.1254 29.9719 38.3763 C 32.4131 37.6272 34.644 36.3149 36.4849 34.5452 C 38.3258 32.7756 39.725 30.5981 40.5698 28.1884 C 41.4147 25.7787 41.6814 23.2042 41.3485 20.6725 C 41.0157 18.1408 40.0925 15.7227 38.6536 13.6132 C 37.2146 11.5038 35.3 9.76201 33.0643 8.52835 C 30.8286 7.2947 28.3342 6.60368 25.7824 6.51103 L 25.7837 6.50966 Z M 25.4813 26.8432 C 24.9516 26.8412 24.4276 26.7349 23.9391 26.5304 C 23.4506 26.3259 23.0071 26.0272 22.634 25.6513 C 22.2609 25.2754 21.9655 24.8297 21.7647 24.3396 C 21.5639 23.8496 21.4615 23.3248 21.4635 22.7952 C 21.4655 22.2656 21.5718 21.7415 21.7763 21.253 C 21.9808 20.7645 22.2795 20.321 22.6554 19.9479 C 23.0313 19.5748 23.477 19.2794 23.967 19.0786 C 24.4571 18.8778 24.9819 18.7754 25.5115 18.7774 C 26.5811 18.7812 27.6053 19.2098 28.3589 19.9688 C 29.1125 20.7278 29.5338 21.7551 29.5299 22.8247 C 29.5261 23.8943 29.0975 24.9186 28.3385 25.6722 C 27.5795 26.4258 26.5522 26.847 25.4826 26.8432 L 25.4813 26.8432 Z" stroke-linecap="round" />
</g>
</g>
</g>
<g transform="matrix(0.79 0 0 0.79 635.67 314.57)" style="" id="21266224-f205-4e09-950b-69651b70fe31"  >
		<text xml:space="preserve" font-family="Raleway" font-size="105" font-style="normal" font-weight="900" style="stroke: none; stroke-width: 1; stroke-dasharray: none; stroke-linecap: butt; stroke-dashoffset: 0; stroke-linejoin: miter; stroke-miterlimit: 4; fill: rgb(0,0,0); fill-rule: nonzero; opacity: 1; white-space: pre;" ><tspan x="-354.37" y="32.98" >fashionFactory</tspan></text>
</g>
</svg>